<svg width="14" height="14" viewBox="0 0 14 14" fill="none" xmlns="http://www.w3.org/2000/svg">
<g clip-path="url(#clip0_113_611)">
<path d="M7 0C3.13438 0 0 3.13438 0 7C0 10.8656 3.13438 14 7 14C10.8656 14 14 10.8656 14 7C14 3.13438 10.8656 0 7 0ZM7.08438 10.4688C5.36563 10.4688 4.375 9.325 4.375 7.42344V6.60625C4.375 4.69062 5.36562 3.53125 7.08281 3.53125C8.55625 3.53125 9.625 4.47969 9.625 5.83437C9.625 5.875 9.59219 5.90781 9.55156 5.90781H8.66562C8.6 5.90781 8.54687 5.85781 8.54062 5.79219C8.47812 5.01875 7.91562 4.48906 7.0875 4.48906C6.06719 4.48906 5.49219 5.24687 5.49219 6.60625V7.42813C5.49219 8.76719 6.06875 9.51562 7.0875 9.51562C7.9125 9.51562 8.47344 9.02031 8.54062 8.3C8.54687 8.23594 8.6 8.18594 8.66562 8.18594H9.55313C9.59375 8.18594 9.62656 8.21875 9.62656 8.25937C9.62656 9.55 8.55313 10.4688 7.08438 10.4688Z" fill="#343738"/>
</g>
<defs>
<clipPath id="clip0_113_611">
<rect width="14" height="14" fill="white"/>
</clipPath>
</defs>
</svg>
