<svg width="120" height="35" viewBox="0 0 120 35" fill="none" xmlns="http://www.w3.org/2000/svg">
<g clip-path="url(#clip0_113_604)">
<path d="M18.41 0.433121C14.253 0.431154 10.231 1.90905 7.06435 4.60217C3.89767 7.29528 1.7931 11.0277 1.12749 15.1311C0.461889 19.2345 1.27873 23.4408 3.43174 26.9968C5.58476 30.5528 8.93332 33.2263 12.8778 34.5384C13.7528 34.7003 14.0744 34.1578 14.0744 33.6962C14.0744 33.2784 14.0569 31.9003 14.0503 30.4391C9.18093 31.4978 8.15499 28.3741 8.15499 28.3741C7.35874 26.3506 6.21249 25.8125 6.21249 25.8125C4.62437 24.7253 6.33281 24.7494 6.33281 24.7494C8.08937 24.8719 9.01468 26.5519 9.01468 26.5519C10.5766 29.2272 13.1097 28.4528 14.1072 28.0066C14.2647 26.8756 14.7175 26.1034 15.2184 25.6659C11.3312 25.2241 7.24499 23.7234 7.24499 17.0166C7.24499 15.1069 7.92968 13.545 9.04749 12.32C8.86593 11.8781 8.26656 10.0997 9.21593 7.68906C9.21593 7.68906 10.6859 7.21875 14.0306 9.48281C15.4581 9.0945 16.9306 8.89664 18.41 8.89437C19.8975 8.90093 21.3959 9.09562 22.7937 9.48281C26.1341 7.21875 27.6019 7.68906 27.6019 7.68906C28.5534 10.0997 27.9562 11.8803 27.7747 12.32C28.8969 13.545 29.575 15.1069 29.575 17.0166C29.575 23.7387 25.48 25.2175 21.5841 25.6506C22.2119 26.1931 22.7719 27.2584 22.7719 28.8903C22.7719 31.2309 22.7522 33.1166 22.7522 33.6919C22.7522 34.1578 23.0672 34.7025 23.9553 34.5319C27.8991 33.2182 31.2464 30.5436 33.3981 26.987C35.5497 23.4304 36.365 19.2241 35.6981 15.1211C35.0313 11.0182 32.9257 7.28661 29.7584 4.59454C26.5911 1.90248 22.569 0.42574 18.4122 0.428746L18.41 0.433121Z" fill="#343738"/>
</g>
<g clip-path="url(#clip1_113_604)">
<path d="M55.3312 15.9081H48.6031C48.5197 15.9082 48.4397 15.9414 48.3807 16.0004C48.3218 16.0594 48.2886 16.1394 48.2886 16.2228V19.5123C48.2886 19.6859 48.4295 19.8272 48.603 19.8272H51.2278V23.9142C51.2278 23.9142 50.6384 24.1152 49.0091 24.1152C47.0867 24.1152 44.4012 23.4127 44.4012 17.5077C44.4012 11.6014 47.1976 10.8244 49.8228 10.8244C52.0951 10.8244 53.0742 11.2244 53.697 11.4172C53.8928 11.4772 54.0739 11.2823 54.0739 11.1086L54.8244 7.93016C54.8244 7.84891 54.7969 7.75109 54.7042 7.68469C54.4512 7.50422 52.908 6.64062 49.0089 6.64062C44.5175 6.64062 39.91 8.55156 39.91 17.738C39.91 26.9247 45.185 28.2936 49.6303 28.2936C53.3108 28.2936 55.5434 26.7208 55.5434 26.7208C55.6356 26.67 55.6455 26.5414 55.6455 26.4823V16.2228C55.6455 16.0494 55.5047 15.9081 55.3312 15.9081ZM89.9875 7.79047C89.9875 7.61547 89.8487 7.47422 89.6751 7.47422H85.8867C85.8453 7.47438 85.8044 7.48269 85.7663 7.49867C85.7281 7.51466 85.6935 7.538 85.6643 7.56736C85.6352 7.59673 85.6121 7.63155 85.5965 7.66983C85.5808 7.70811 85.5728 7.7491 85.573 7.79047L85.5739 15.1117H79.6689V7.79063C79.6689 7.61563 79.5295 7.47437 79.3562 7.47437H75.5678C75.4844 7.47483 75.4045 7.5084 75.3458 7.5677C75.2872 7.62701 75.2544 7.70719 75.2548 7.79063V27.6144C75.2548 27.7894 75.3955 27.9316 75.5678 27.9316H79.3561C79.5294 27.9316 79.6686 27.7894 79.6686 27.6144V19.135H85.5737L85.5634 27.6142C85.5634 27.7892 85.7041 27.9314 85.8772 27.9314H89.6747C89.8481 27.9314 89.9869 27.7892 89.9872 27.6142V7.79063L89.9875 7.79047ZM62.4678 10.4409C62.4678 9.07688 61.3741 7.97438 60.0248 7.97438C58.6769 7.97438 57.5823 9.07672 57.5823 10.4409C57.5823 11.8034 58.6769 12.9089 60.0248 12.9089C61.3741 12.9089 62.4678 11.8034 62.4678 10.4409ZM62.1672 23.4428V14.2922C62.1674 14.2088 62.1346 14.1287 62.0758 14.0694C62.017 14.0102 61.9372 13.9768 61.8537 13.9764H58.0773C57.9041 13.9764 57.7492 14.1552 57.7492 14.3289V27.4391C57.7492 27.8244 57.9892 27.9389 58.3 27.9389H61.7023C62.0758 27.9389 62.1672 27.7556 62.1672 27.4328V23.4428ZM104.467 13.9766H100.707C100.535 13.9766 100.394 14.1186 100.394 14.2934V24.0138C100.394 24.0138 99.4394 24.7125 98.0837 24.7125C96.7283 24.7125 96.3686 24.0973 96.3686 22.7702V14.2936C96.3686 14.1186 96.2284 13.9764 96.0559 13.9764H92.2405C92.0683 13.9764 91.9272 14.1186 91.9272 14.2936V23.412C91.9272 27.3542 94.1245 28.3188 97.1472 28.3188C99.6269 28.3188 101.626 26.9489 101.626 26.9489C101.626 26.9489 101.721 27.6708 101.764 27.7564C101.807 27.8419 101.92 27.928 102.041 27.928L104.468 27.9173C104.64 27.9173 104.782 27.775 104.782 27.6009L104.78 14.2934C104.781 14.2098 104.748 14.1295 104.689 14.0701C104.63 14.0107 104.55 13.9771 104.467 13.9766ZM113.128 24.72C111.824 24.6803 110.94 24.0886 110.94 24.0886V17.8106C110.94 17.8106 111.812 17.2758 112.883 17.1802C114.237 17.0589 115.541 17.4678 115.541 20.6973C115.541 24.1028 114.952 24.775 113.128 24.72ZM114.611 13.5508C112.476 13.5508 111.024 14.5034 111.024 14.5034V7.79047C111.024 7.74917 111.016 7.70823 111 7.66997C110.985 7.63172 110.962 7.59691 110.933 7.56753C110.904 7.53816 110.869 7.51479 110.831 7.49878C110.793 7.48277 110.752 7.47442 110.711 7.47422H106.912C106.871 7.4744 106.83 7.48273 106.792 7.49873C106.753 7.51472 106.719 7.53808 106.69 7.56745C106.661 7.59682 106.638 7.63163 106.622 7.6699C106.606 7.70817 106.599 7.74914 106.599 7.79047V27.6142C106.599 27.7892 106.739 27.9314 106.912 27.9314H109.548C109.667 27.9314 109.757 27.8705 109.823 27.7631C109.889 27.6566 109.983 26.8491 109.983 26.8491C109.983 26.8491 111.537 28.3212 114.477 28.3212C117.93 28.3212 119.91 26.57 119.91 20.4595C119.91 14.3491 116.748 13.5508 114.611 13.5508ZM73.0708 13.9422H70.2291L70.2247 10.188C70.2247 10.0459 70.1516 9.97484 69.9872 9.97484H66.1147C65.9641 9.97484 65.8833 10.0411 65.8833 10.1858V14.0655C65.8833 14.0655 63.9426 14.5339 63.8114 14.5717C63.7459 14.5907 63.6884 14.6304 63.6475 14.6849C63.6066 14.7394 63.5845 14.8058 63.5845 14.8739V17.3119C63.5845 17.4872 63.7245 17.6286 63.8978 17.6286H65.8833V23.4936C65.8833 27.8498 68.9389 28.2778 71.0009 28.2778C71.9431 28.2778 73.0701 27.9752 73.2562 27.9066C73.3687 27.8652 73.4341 27.7487 73.4341 27.6222L73.4372 24.9403C73.4372 24.7655 73.2895 24.6239 73.1231 24.6239C72.9575 24.6239 72.5341 24.6913 72.0978 24.6913C70.702 24.6913 70.2291 24.0422 70.2291 23.2022L70.2289 17.6287H73.0708C73.1122 17.6286 73.1531 17.6203 73.1913 17.6042C73.2295 17.5882 73.2641 17.5648 73.2933 17.5354C73.3224 17.5059 73.3454 17.471 73.361 17.4327C73.3766 17.3943 73.3845 17.3533 73.3842 17.3119V14.2583C73.3842 14.0833 73.2441 13.9422 73.0708 13.9422Z" fill="#343738"/>
</g>
<defs>
<clipPath id="clip0_113_604">
<rect width="35" height="35" fill="white" transform="translate(0.909988)"/>
</clipPath>
<clipPath id="clip1_113_604">
<rect width="80" height="21.7188" fill="white" transform="translate(39.91 6.64062)"/>
</clipPath>
</defs>
</svg>
