<svg width="32" height="32" viewBox="0 0 32 32" fill="none" xmlns="http://www.w3.org/2000/svg">
<g clip-path="url(#clip0_118_775)">
<path d="M28.9167 17.0816C28.8033 17.0822 28.691 17.0605 28.5861 17.0177C28.4812 16.9748 28.3857 16.9117 28.3053 16.8319L16 4.51797L3.69473 16.8319C3.52999 16.9729 3.3181 17.0467 3.10137 17.0383C2.88465 17.0299 2.67907 16.9401 2.52571 16.7867C2.37235 16.6333 2.28251 16.4278 2.27414 16.211C2.26577 15.9943 2.33949 15.7824 2.48056 15.6177L15.3972 2.70103C15.5586 2.54064 15.7768 2.45062 16.0043 2.45062C16.2318 2.45062 16.4501 2.54064 16.6114 2.70103L23.0697 9.15936L29.5281 15.6177C29.6466 15.7386 29.7268 15.8917 29.7587 16.0579C29.7907 16.2242 29.7729 16.3961 29.7077 16.5523C29.6425 16.7085 29.5326 16.842 29.3919 16.9362C29.2513 17.0303 29.0859 17.0809 28.9167 17.0816Z" fill="#D36FB1"/>
<path d="M14.1305 16.3871L16.0103 14.501L17.9011 16.3871H14.1305Z" stroke="#D36FB1" stroke-width="10"/>
<path d="M6.28824 28.315V18.0419L16.1226 8.17478L25.9549 17.9825V28.315C25.9549 28.6392 25.8261 28.9501 25.5969 29.1793C25.3677 29.4085 25.0568 29.5373 24.7327 29.5373H18.7049H13.5382H7.51046C7.18631 29.5373 6.87543 29.4085 6.64622 29.1793C6.41701 28.9501 6.28824 28.6392 6.28824 28.315Z" stroke="#D36FB1"/>
</g>
<defs>
<clipPath id="clip0_118_775">
<rect width="31" height="31" fill="white" transform="translate(0.5 0.720459)"/>
</clipPath>
</defs>
</svg>
