<svg width="31" height="31" viewBox="0 0 31 31" fill="none" xmlns="http://www.w3.org/2000/svg">
<g clip-path="url(#clip0_118_776)">
<path d="M28.4167 16.3611C28.3033 16.3618 28.191 16.3401 28.0861 16.2972C27.9812 16.2544 27.8857 16.1912 27.8053 16.1114L15.5 3.79751L3.19473 16.1114C3.02999 16.2525 2.8181 16.3262 2.60137 16.3178C2.38465 16.3094 2.17907 16.2196 2.02571 16.0662C1.87235 15.9129 1.78251 15.7073 1.77414 15.4906C1.76577 15.2739 1.83949 15.062 1.98056 14.8972L14.8972 1.98057C15.0586 1.82019 15.2768 1.73016 15.5043 1.73016C15.7318 1.73016 15.9501 1.82019 16.1114 1.98057L22.5697 8.4389L29.0281 14.8972C29.1466 15.0181 29.2268 15.1713 29.2587 15.3375C29.2907 15.5037 29.2729 15.6757 29.2077 15.8319C29.1425 15.9881 29.0326 16.1216 28.8919 16.2157C28.7513 16.3098 28.5859 16.3604 28.4167 16.3611Z" fill="#D36FB1"/>
<path d="M12.9167 19.6667H11.9167V20.6667V28.2778H6.88888C6.69733 28.2778 6.51363 28.2017 6.37819 28.0663C6.24275 27.9308 6.16666 27.7471 6.16666 27.5556V17.4891L15.5021 8.12257L24.8333 17.4305V27.5556C24.8333 27.7471 24.7572 27.9308 24.6218 28.0663C24.4863 28.2017 24.3027 28.2778 24.1111 28.2778H19.0833V20.6667V19.6667H18.0833H12.9167Z" stroke="#D36FB1" stroke-width="2"/>
<path d="M5.78824 27.5946V17.3215L15.6226 7.45432L25.4549 17.262V27.5946C25.4549 27.9187 25.3261 28.2296 25.0969 28.4588C24.8677 28.688 24.5568 28.8168 24.2327 28.8168H18.2049H13.0382H7.01046C6.68631 28.8168 6.37543 28.688 6.14622 28.4588C5.91701 28.2296 5.78824 27.9187 5.78824 27.5946Z" stroke="#D36FB1"/>
</g>
<defs>
<clipPath id="clip0_118_776">
<rect width="31" height="31" fill="white"/>
</clipPath>
</defs>
</svg>
