<svg width="148" height="148" viewBox="0 0 148 148" fill="none" xmlns="http://www.w3.org/2000/svg">
<g clip-path="url(#clip0_138_305)">
<path d="M135.667 78.1111C135.126 78.1142 134.589 78.0105 134.088 77.806C133.588 77.6014 133.132 77.2999 132.748 76.9189L74 18.13L15.2523 76.9189C14.4658 77.5924 13.4541 77.9443 12.4195 77.9044C11.3848 77.8644 10.4033 77.4355 9.67116 76.7033C8.93899 75.9712 8.51007 74.9897 8.47011 73.955C8.43014 72.9203 8.78208 71.9087 9.45559 71.1222L71.1222 9.45555C71.8925 8.68985 72.9345 8.26007 74.0206 8.26007C75.1067 8.26007 76.1486 8.68985 76.9189 9.45555L107.752 40.2889L138.586 71.1222C139.151 71.6994 139.534 72.4304 139.687 73.2241C139.839 74.0177 139.755 74.8387 139.443 75.5844C139.132 76.3301 138.607 76.9675 137.936 77.4169C137.264 77.8663 136.475 78.1078 135.667 78.1111Z" fill="#D36FB1"/>
<path d="M61.6665 93.6667H56.6665V98.6667V134.778H32.8887C32.0341 134.778 31.2145 134.438 30.6103 133.834C30.006 133.23 29.6665 132.41 29.6665 131.556V83.5895L74.0101 39.0981L118.333 83.3103V131.556C118.333 132.41 117.994 133.23 117.389 133.834C116.785 134.438 115.966 134.778 115.111 134.778H91.3332V98.6667V93.6667H86.3332H61.6665Z" stroke="#D36FB1" stroke-width="10"/>
<path d="M27.2471 131.742V82.536L74.5845 35.0408L121.914 82.2517V131.742C121.914 133.392 121.258 134.975 120.091 136.142C118.924 137.308 117.342 137.964 115.692 137.964H86.9137H62.2471H33.4693C31.8191 137.964 30.2364 137.308 29.0695 136.142C27.9026 134.975 27.2471 133.392 27.2471 131.742Z" stroke="#D36FB1" stroke-width="4"/>
</g>
<defs>
<clipPath id="clip0_138_305">
<rect width="148" height="148" fill="white"/>
</clipPath>
</defs>
</svg>
