<svg width="129" height="33" viewBox="0 0 129 33" fill="none" xmlns="http://www.w3.org/2000/svg">
<path d="M0.909973 5.37002H5.84998V23.35H14.99V27.91H0.909973V5.37002ZM17.17 12.64H21.91V27.9H17.17V12.64ZM19.54 5.05002C20.0839 5.05002 20.6156 5.21132 21.0678 5.51352C21.52 5.81562 21.8725 6.24512 22.0806 6.74762C22.2888 7.25012 22.3432 7.80312 22.2371 8.33652C22.131 8.87002 21.8691 9.36002 21.4845 9.74452C21.0999 10.1291 20.6099 10.3911 20.0765 10.4972C19.543 10.6033 18.9901 10.5488 18.4876 10.3407C17.9851 10.1325 17.5556 9.78012 17.2534 9.32782C16.9513 8.87562 16.79 8.34392 16.79 7.80002C16.79 7.07072 17.0797 6.37122 17.5954 5.85552C18.1112 5.33972 18.8106 5.05002 19.54 5.05002ZM41.75 5.37002H46.49V18.84L51.87 12.62H57.68L51.46 19.69L57.55 27.91H51.59L46.55 20.36H46.49V27.91H41.75V5.37002ZM24.54 12.64H29.06V14.73H29.12C29.5759 13.9515 30.234 13.3109 31.0245 12.876C31.815 12.4412 32.7083 12.2283 33.61 12.26C38.42 12.26 39.3 15.42 39.3 19.53V27.91H34.6V20.48C34.6 18.71 34.6 16.48 32.13 16.48C29.66 16.48 29.28 18.41 29.28 20.4V27.95H24.54V12.64Z" fill="#343738"/>
<path d="M68.7 18.35C68.7096 17.9652 68.6409 17.5825 68.4981 17.2251C68.3553 16.8677 68.1413 16.5431 67.8691 16.2709C67.5969 15.9988 67.2723 15.7848 66.9149 15.6419C66.5575 15.4991 66.1748 15.4304 65.79 15.44C64.9613 15.3876 64.1452 15.6635 63.5183 16.2081C62.8914 16.7526 62.5041 17.5221 62.44 18.35H68.7ZM72.7 25.12C71.9089 26.0681 70.9174 26.8289 69.7969 27.3476C68.6764 27.8664 67.4548 28.1302 66.22 28.12C61.48 28.12 57.68 24.96 57.68 20.05C57.68 15.14 61.48 11.99 66.22 11.99C70.65 11.99 73.43 15.15 73.43 20.05V21.54H62.43C62.5607 22.3877 62.9947 23.1591 63.6513 23.7109C64.3079 24.2627 65.1425 24.5573 66 24.54C66.6755 24.539 67.3397 24.367 67.9307 24.0401C68.5217 23.7131 69.0203 23.2417 69.38 22.67L72.7 25.12ZM83.32 16.18C82.546 16.1561 81.7824 16.3638 81.1272 16.7765C80.4719 17.1891 79.9546 17.788 79.6417 18.4963C79.3288 19.2047 79.2345 19.9904 79.3707 20.7527C79.507 21.515 79.8677 22.2193 80.4066 22.7754C80.9456 23.3315 81.6382 23.7141 82.3959 23.8741C83.1536 24.0342 83.9418 23.9645 84.6596 23.6739C85.3774 23.3834 85.9922 22.8852 86.4252 22.2431C86.8582 21.6011 87.0897 20.8444 87.09 20.07C87.1325 19.5561 87.064 19.0391 86.8893 18.554C86.7146 18.0689 86.4377 17.627 86.0774 17.2581C85.7171 16.8893 85.2818 16.6021 84.8009 16.4161C84.32 16.2301 83.8047 16.1496 83.29 16.18M91.49 27.76H87.09V25.76C86.5403 26.4931 85.83 27.0906 85.0136 27.5067C84.1971 27.9227 83.2963 28.1462 82.38 28.16C77.82 28.16 74.82 24.87 74.82 20.22C74.82 15.95 77.48 12.03 81.82 12.03C82.7325 11.9498 83.651 12.0896 84.4983 12.4376C85.3457 12.7856 86.0972 13.3316 86.69 14.03H86.75V5.23H91.49V27.76ZM125.69 0.500005H98.45C98.1407 0.496005 97.8337 0.553706 97.5468 0.669606C97.26 0.785506 96.9992 0.957405 96.7795 1.17531C96.5598 1.39311 96.3857 1.65251 96.2673 1.93831C96.1489 2.22411 96.0887 2.5306 96.09 2.84V30.19C96.0926 30.4968 96.1558 30.8001 96.276 31.0825C96.3961 31.3648 96.5708 31.6207 96.7901 31.8353C97.0094 32.0499 97.2689 32.2192 97.5538 32.3332C97.8386 32.4473 98.1432 32.504 98.45 32.5H125.69C126 32.508 126.308 32.4543 126.597 32.3422C126.886 32.23 127.15 32.0616 127.373 31.8467C127.596 31.6318 127.775 31.3747 127.898 31.0903C128.021 30.8059 128.086 30.4999 128.09 30.19V2.84C128.09 2.5276 128.028 2.21831 127.906 1.93041C127.785 1.64261 127.607 1.3819 127.384 1.1638C127.16 0.945704 126.895 0.774603 126.604 0.660603C126.313 0.546603 126.002 0.492005 125.69 0.500005ZM105.57 27.77H100.83V12.5H105.57V27.77ZM103.2 10.43C102.656 10.43 102.124 10.2687 101.672 9.9665C101.22 9.6644 100.867 9.2349 100.659 8.7324C100.451 8.2299 100.397 7.67701 100.503 7.14351C100.609 6.61011 100.871 6.12011 101.255 5.73551C101.64 5.35091 102.13 5.089 102.664 4.9828C103.197 4.8767 103.75 4.93121 104.252 5.13931C104.755 5.34751 105.184 5.7 105.487 6.1522C105.789 6.6044 105.95 7.13611 105.95 7.68001C105.95 8.40941 105.66 9.10881 105.145 9.62451C104.629 10.1403 103.929 10.43 103.2 10.43ZM123.33 27.77H118.59V20.35C118.59 18.58 118.59 16.35 116.13 16.35C113.67 16.35 113.28 18.28 113.28 20.27V27.82H108.54V12.5H113.09V14.6H113.15C113.607 13.8234 114.266 13.1848 115.056 12.7517C115.847 12.3187 116.739 12.1073 117.64 12.14C122.44 12.14 123.33 15.3 123.33 19.41V27.77Z" fill="#343738"/>
</svg>
