<svg width="61" height="62" viewBox="0 0 61 62" fill="none" xmlns="http://www.w3.org/2000/svg">
<g filter="url(#filter0_d_112_336)">
<path d="M42.2778 0H18.7222C10.5914 0 4 6.60629 4 14.7556V38.3644C4 46.5137 10.5914 53.12 18.7222 53.12H42.2778C50.4086 53.12 57 46.5137 57 38.3644V14.7556C57 6.60629 50.4086 0 42.2778 0Z" fill="#A4CACF"/>
<path d="M22.2555 18.1493C22.2555 14.8896 19.619 12.2471 16.3667 12.2471C13.1143 12.2471 10.4778 14.8896 10.4778 18.1493C10.4778 21.409 13.1143 24.0516 16.3667 24.0516C19.619 24.0516 22.2555 21.409 22.2555 18.1493Z" stroke="white" stroke-width="2" stroke-linejoin="round"/>
<path d="M36.3889 12.2471H24.6111V24.0516H36.3889V12.2471Z" stroke="white" stroke-width="2" stroke-linejoin="round"/>
<path d="M50.5222 18.1493C50.5222 14.8896 47.8857 12.2471 44.6333 12.2471C41.381 12.2471 38.7444 14.8896 38.7444 18.1493C38.7444 21.409 41.381 24.0516 44.6333 24.0516C47.8857 24.0516 50.5222 21.409 50.5222 18.1493Z" stroke="white" stroke-width="2" stroke-linejoin="round"/>
<path d="M50.375 25.8222H10.625C10.2185 25.8222 9.88889 26.1525 9.88889 26.56C9.88889 26.9675 10.2185 27.2978 10.625 27.2978H50.375C50.7815 27.2978 51.1111 26.9675 51.1111 26.56C51.1111 26.1525 50.7815 25.8222 50.375 25.8222Z" fill="white"/>
<path d="M22.2555 29.0684H10.4778V40.8729H22.2555V29.0684Z" stroke="white" stroke-width="2" stroke-linejoin="round"/>
<path d="M36.3889 34.9707C36.3889 31.711 33.7523 29.0684 30.5 29.0684C27.2476 29.0684 24.6111 31.711 24.6111 34.9707C24.6111 38.2304 27.2476 40.8729 30.5 40.8729C33.7523 40.8729 36.3889 38.2304 36.3889 34.9707Z" stroke="white" stroke-width="2" stroke-linejoin="round"/>
<path d="M50.5222 29.0684H38.7444V40.8729H50.5222V29.0684Z" stroke="white" stroke-width="2" stroke-linejoin="round"/>
</g>
<defs>
<filter id="filter0_d_112_336" x="0" y="0" width="61" height="61.12" filterUnits="userSpaceOnUse" color-interpolation-filters="sRGB">
<feFlood flood-opacity="0" result="BackgroundImageFix"/>
<feColorMatrix in="SourceAlpha" type="matrix" values="0 0 0 0 0 0 0 0 0 0 0 0 0 0 0 0 0 0 127 0" result="hardAlpha"/>
<feOffset dy="4"/>
<feGaussianBlur stdDeviation="2"/>
<feComposite in2="hardAlpha" operator="out"/>
<feColorMatrix type="matrix" values="0 0 0 0 0 0 0 0 0 0 0 0 0 0 0 0 0 0 0.25 0"/>
<feBlend mode="normal" in2="BackgroundImageFix" result="effect1_dropShadow_112_336"/>
<feBlend mode="normal" in="SourceGraphic" in2="effect1_dropShadow_112_336" result="shape"/>
</filter>
</defs>
</svg>
