<svg width="189" height="189" viewBox="0 0 189 189" fill="none" xmlns="http://www.w3.org/2000/svg">
<g filter="url(#filter0_d_123_859)">
<rect x="4.91797" y="0.779297" width="180" height="180" rx="50" fill="#A4CACF"/>
<path fill-rule="evenodd" clip-rule="evenodd" d="M101.986 111.842C94.2097 102.159 88.9469 90.2935 89.8263 76.9975C92.3602 38.688 142.631 47.1156 152.41 66.451C162.189 85.7863 161.027 134.832 148.388 138.288C143.348 139.666 132.612 136.29 121.684 129.303L128.543 180.779H88.043L101.986 111.842Z" fill="#F2EFE9"/>
<path fill-rule="evenodd" clip-rule="evenodd" d="M156.233 75.1327C155.832 72.6264 154.852 69.8433 154.061 67.4721C153.041 64.4154 151.497 61.6593 149.799 59.0619C146.601 54.1717 142.765 49.7557 138.529 46.0905C130.792 39.3958 120.944 35.5342 111.259 36.7882C106.369 37.4214 101.622 39.4 97.5816 42.6934C93.9313 45.669 90.4202 50.0494 85.6935 50.3641C80.5504 50.7063 75.836 45.8908 71.7113 42.9167C67.0606 39.5638 62.1132 37.1207 56.6778 36.171C47.5722 34.5806 39.0181 37.8441 32.7426 45.7691C26.0647 54.2025 21.2104 66.57 25.5958 77.7442C26.411 79.8214 27.4597 81.5725 28.9647 83.0239C30.345 84.3548 32.4531 85.7707 33.0128 87.8973C33.6072 90.1578 31.8315 93.0739 31.1429 95.1136C30.1565 98.0358 29.3465 101.103 29.6345 104.28C30.1076 109.496 33.1977 114.475 36.4607 117.904C39.7812 121.393 43.868 123.393 48.233 124.316C51.1477 124.931 54.1264 125.271 57.0886 125.04C58.5591 124.925 59.8568 124.492 61.2816 124.147C62.6671 123.812 63.4415 124.202 64.617 125.008C70.0778 128.754 75.9495 130.202 82.255 129.646C87.5767 129.175 93.7104 127.807 98.0516 123.939C102.873 119.643 102.777 113.72 101.642 107.391C102.844 108.022 106.169 108.414 104.182 105.895C103.395 104.897 101.908 104.491 100.898 103.905C99.7219 103.222 98.5278 102.339 97.6146 101.224C93.9272 96.7247 97.6515 87.5676 102.286 86.0586C109.172 83.8168 110.714 94.1471 115.629 96.8193C118.455 98.3557 121.412 96.2557 123.529 94.1114C126.366 91.2389 128.299 87.4335 129.968 83.5609C131.343 80.3718 132.622 77.1379 134.023 73.9647C134.678 72.4828 136.943 68.2937 135.805 66.6182C140.737 65.5749 146.231 67.749 150.478 70.6002C152.234 71.7789 153.572 73.0784 154.509 75.1592C154.709 75.6051 155.146 76.9305 155.695 76.9848C156.716 77.0861 156.334 75.7625 156.233 75.1327Z" fill="#D36FB1"/>
</g>
<defs>
<filter id="filter0_d_123_859" x="0.917969" y="0.779297" width="188.082" height="188.221" filterUnits="userSpaceOnUse" color-interpolation-filters="sRGB">
<feFlood flood-opacity="0" result="BackgroundImageFix"/>
<feColorMatrix in="SourceAlpha" type="matrix" values="0 0 0 0 0 0 0 0 0 0 0 0 0 0 0 0 0 0 127 0" result="hardAlpha"/>
<feOffset dy="4"/>
<feGaussianBlur stdDeviation="2"/>
<feComposite in2="hardAlpha" operator="out"/>
<feColorMatrix type="matrix" values="0 0 0 0 0 0 0 0 0 0 0 0 0 0 0 0 0 0 0.25 0"/>
<feBlend mode="normal" in2="BackgroundImageFix" result="effect1_dropShadow_123_859"/>
<feBlend mode="normal" in="SourceGraphic" in2="effect1_dropShadow_123_859" result="shape"/>
</filter>
</defs>
</svg>
