<svg width="62" height="56" viewBox="0 0 62 56" fill="none" xmlns="http://www.w3.org/2000/svg">
<g filter="url(#filter0_d_110_253)">
<path d="M46.4301 0H20.9194C13.1992 0 6.94086 6.25839 6.94086 13.9785V39.1398C6.94086 46.8599 13.1992 53.1183 20.9194 53.1183H46.4301C54.1502 53.1183 60.4086 46.8599 60.4086 39.1398V13.9785C60.4086 6.25839 54.1502 0 46.4301 0Z" fill="#A4CACF"/>
<path fill-rule="evenodd" clip-rule="evenodd" d="M25.3919 32.7748C22.9623 29.9175 21.318 26.4159 21.5928 22.4922C22.3844 11.187 38.0914 13.674 41.1467 19.3799C44.202 25.0857 43.8389 39.5592 39.8902 40.579C38.3155 40.9857 34.9608 39.9895 31.5465 37.9276L33.6896 53.1183H21.0355L25.3919 32.7748Z" fill="#F2EFE9"/>
<path fill-rule="evenodd" clip-rule="evenodd" d="M42.3413 21.9418C42.2159 21.2022 41.9096 20.3809 41.6625 19.6812C41.3438 18.7791 40.8615 17.9658 40.3308 17.1993C39.3316 15.7561 38.133 14.453 36.8096 13.3714C34.3923 11.3958 31.3152 10.2562 28.2892 10.6263C26.7613 10.8131 25.2782 11.397 24.0159 12.3689C22.8754 13.247 21.7783 14.5397 20.3014 14.6326C18.6945 14.7335 17.2216 13.3125 15.9328 12.4348C14.4797 11.4454 12.9339 10.7244 11.2356 10.4442C8.39064 9.97478 5.71795 10.9379 3.75723 13.2766C1.67074 15.7653 0.154029 19.4149 1.52424 22.7125C1.77893 23.3254 2.10659 23.8422 2.57684 24.2705C3.0081 24.6632 3.66678 25.0811 3.84164 25.7087C4.02737 26.3757 3.47255 27.2363 3.25741 27.8382C2.94919 28.7006 2.69614 29.6058 2.7861 30.5431C2.93391 32.0824 3.89941 33.5519 4.91891 34.5636C5.95643 35.5932 7.23329 36.1836 8.5971 36.4558C9.5078 36.6374 10.4385 36.7377 11.364 36.6695C11.8235 36.6357 12.2289 36.5078 12.6741 36.4061C13.107 36.3072 13.349 36.4224 13.7162 36.6602C15.4225 37.7654 17.257 38.193 19.2271 38.0286C20.8899 37.8899 22.8063 37.4861 24.1627 36.3447C25.669 35.077 25.6391 33.3289 25.2846 31.4611C25.6601 31.6476 26.6991 31.7631 26.0783 31.0198C25.8323 30.7254 25.3676 30.6056 25.052 30.4324C24.6846 30.2309 24.3115 29.9703 24.0261 29.6415C22.874 28.3137 24.0377 25.6114 25.4858 25.166C27.6372 24.5045 28.1189 27.553 29.6547 28.3415C30.5377 28.7949 31.4615 28.1753 32.1231 27.5425C33.0094 26.6948 33.6134 25.5718 34.1348 24.429C34.5644 23.4879 34.9641 22.5335 35.4019 21.5971C35.6063 21.1598 36.3141 19.9236 35.9587 19.4291C37.4997 19.1213 39.216 19.7629 40.5432 20.6042C41.0917 20.9521 41.5099 21.3356 41.8025 21.9497C41.8652 22.0812 42.0017 22.4723 42.173 22.4884C42.4919 22.5182 42.3728 22.1277 42.3413 21.9418Z" fill="#D36FB1"/>
</g>
<defs>
<filter id="filter0_d_110_253" x="0" y="0" width="61.4086" height="55.1183" filterUnits="userSpaceOnUse" color-interpolation-filters="sRGB">
<feFlood flood-opacity="0" result="BackgroundImageFix"/>
<feColorMatrix in="SourceAlpha" type="matrix" values="0 0 0 0 0 0 0 0 0 0 0 0 0 0 0 0 0 0 127 0" result="hardAlpha"/>
<feOffset dy="1"/>
<feGaussianBlur stdDeviation="0.5"/>
<feComposite in2="hardAlpha" operator="out"/>
<feColorMatrix type="matrix" values="0 0 0 0 0 0 0 0 0 0 0 0 0 0 0 0 0 0 0.25 0"/>
<feBlend mode="normal" in2="BackgroundImageFix" result="effect1_dropShadow_110_253"/>
<feBlend mode="normal" in="SourceGraphic" in2="effect1_dropShadow_110_253" result="shape"/>
</filter>
</defs>
</svg>
